# xmcd CD database file
#
# Track frame offsets:
#	150
#	12975
#	25895
#	38127
#	51150
#	62957
#	74562
#	84780
#	96510
#	109890
#	121537
#	132965
#
# Disc length: 1904 seconds
#
# Revision: 0
# Processed by: cddbd v1.4PL0 Copyright (c) Steve Scherf et al.
# Submitted via: CDex 1.40Beta9
#
DISCID=a0076e0c
DTITLE=Eddy Arnold - 36 All-Time Greatest Hits
DYEAR=1900
DGENRE=Country
TTITLE0=Each Minute Seems A Million Years
TTITLE1=Chained To A Memory
TTITLE2=I'll Hold You In My Heart
TTITLE3=Anytime
TTITLE4=Don't Rob Another Man's Castle
TTITLE5=Little Angel With The Dirty Face
TTITLE6=Ther's Been A Change In Me
TTITLE7=Easy On The Eyes
TTITLE8=How's The World Treating You
TTITLE9=I Really Don't Want To Know
TTITLE10=Cattle Call
TTITLE11=Gonna Find Me A Bluebird
EXTD=ID3G: 2
EXTT0=
EXTT1=
EXTT2=
EXTT3=
EXTT4=
EXTT5=
EXTT6=
EXTT7=
EXTT8=
EXTT9=
EXTT10=
EXTT11=
PLAYORDER=
